<svg width="100" height="100" viewBox="0 0 100 100" fill="none" xmlns="http://www.w3.org/2000/svg">
<path d="M16.1321 48.2213V71.953C16.1321 71.953 15.8679 74.6324 18.906 74.76C22.0762 74.8876 38.7196 74.76 38.7196 74.76C38.7196 74.76 53.1175 73.9945 53.3817 49.88C53.6458 25.7655 37.6629 25 37.6629 25H17.9814C16.9246 25 16 25.8931 16 27.0414V29.5932C16 30.6139 16.7925 31.507 17.8493 31.507H38.4554C38.4554 31.507 47.5697 33.1657 47.4376 50.0076C47.3055 66.8494 37.3987 68.2529 37.3987 68.2529H22.7366V48.0937C22.7366 48.0937 22.8687 45.0316 19.5664 44.904C16.1321 44.7764 16.1321 48.2213 16.1321 48.2213Z" stroke="white" stroke-width="2" stroke-miterlimit="10"/>
<path d="M82.1025 30.8697L68.8934 44.2666C67.8367 45.2873 66.2516 45.2873 65.1949 44.3942C64.1382 43.3735 64.1382 41.8424 65.0628 40.8217L78.2719 27.4247C79.3286 26.404 80.9137 26.404 81.9704 27.2971C83.1593 28.1903 83.1592 29.849 82.1025 30.8697Z" stroke="white" stroke-width="2" stroke-miterlimit="10"/>
<path d="M78.8753 74.1222L57.4766 52.0491C56.4198 51.0284 56.5519 49.2421 57.6087 48.349C58.6654 47.3283 60.5147 47.4559 61.4393 48.4766L82.838 70.5496C83.8947 71.5703 83.7626 73.3566 82.7059 74.2497C81.6492 75.2704 79.932 75.2705 78.8753 74.1222Z" stroke="white" stroke-width="2" stroke-miterlimit="10"/>
</svg>
